<?xml version="1.0" encoding="utf-8"?>
<!-- Generator: Adobe Illustrator 19.2.1, SVG Export Plug-In . SVG Version: 6.00 Build 0)  -->
<svg version="1.1" id="Layer_1" xmlns="http://www.w3.org/2000/svg" xmlns:xlink="http://www.w3.org/1999/xlink" x="0px" y="0px"
	 viewBox="0 0 513.7 138.9" style="enable-background:new 0 0 513.7 138.9;" xml:space="preserve">
<style type="text/css">
	.st0{fill:#EE2329;}
	.st1{fill:#FABC15;}
	.st2{fill:#F47D20;}
	.st3{fill:#10ACDF;}
	.st4{fill:#1BA64E;}
	.st5{fill:#B93C26;}
	.st6{fill:#84D3E8;}
	.st7{fill:#FFFFFF;}
</style>
<g>
	<path class="st0" d="M137.1,53.6c-5.6-23.8-23.3-42.9-46.3-50.3V80L137.1,53.6z"/>
	<path class="st1" d="M81.6,85.2L5.7,42.1C2,50.5,0,59.7,0,69.5c0,0,0,0,0,0c0,1.2,0,2.4,0.1,3.6c0,0,0,0.1,0,0.1
		c1,18.1,9,34.3,21.4,46.2L81.6,85.2z"/>
	<path class="st2" d="M8.4,36.6L84.6,80V1.7C79.9,0.6,75,0,69.9,0C43.3,0.2,20.2,15,8.4,36.6z"/>
	<path class="st3" d="M90.8,135.6c14.2-4.6,26.3-13.5,34.9-25.3L90.8,90.5V135.6z"/>
	<path class="st4" d="M26.3,123.6c12,9.5,27.1,15.2,43.6,15.3c5,0,9.9-0.6,14.7-1.7V90.5L26.3,123.6z"/>
</g>
<g>
	<path d="M203.3,47.3c4.4,3.8,6.6,9.2,6.6,16.2c0,6.8-2.2,12-6.6,15.8c-4.4,3.8-10.6,5.7-18.5,5.7h-14.4v24.8h-14.3V41.6h28.6
		C192.7,41.6,198.9,43.5,203.3,47.3z M192.4,71.3c2.1-1.8,3.1-4.4,3.1-7.9c0-3.5-1-6.1-3.1-7.9c-2.1-1.7-5.3-2.6-9.7-2.6h-12.2v21
		h12.2C187.1,73.9,190.3,73.1,192.4,71.3z"/>
	<path d="M265.8,62c3.4,3.2,5.1,7.9,5.1,13.9v33.9h-14.2V80c0-7.9-3.1-11.8-9.2-11.8c-3.3,0-6.1,1.2-8.4,3.5
		c-2.3,2.3-3.5,5.9-3.5,10.7v27.3h-14.2V35.5h14.2v31.4c1.6-3.3,3.8-5.8,6.7-7.4c2.9-1.6,6.2-2.4,10-2.4
		C257.9,57.1,262.4,58.7,265.8,62z"/>
	<path d="M328.7,64.2c4.7,4.8,7,11.3,7,19.7c0,8.4-2.3,15-7,19.7c-4.7,4.8-11.1,7.1-19.5,7.1c-8.3,0-14.8-2.4-19.5-7.1
		c-4.7-4.8-7-11.3-7-19.7c0-8.4,2.3-15,7-19.7c4.7-4.8,11.1-7.1,19.5-7.1C317.6,57.1,324.1,59.5,328.7,64.2z M300.1,71.7
		c-2.1,2.7-3.2,6.8-3.2,12.2s1,9.5,3.2,12.2c2.1,2.7,5.1,4.1,9.1,4.1c4,0,7-1.4,9.1-4.1c2.1-2.7,3.2-6.8,3.2-12.2s-1.1-9.5-3.2-12.2
		s-5.2-4.1-9.1-4.1C305.2,67.6,302.2,69,300.1,71.7z"/>
	<path d="M395.7,58.1l-19.6,51.7h-16.3l-19.6-51.7h15.2L368,99.9l13-41.8H395.7z"/>
	<path d="M450.7,89.3h-36.6c1.4,7.3,5.8,11,12.9,11c3,0,5.4-0.6,7.3-1.7c1.9-1.1,3.3-2.7,4-4.8l11.6,4.2c-1.7,4.1-4.4,7.3-8.3,9.5
		c-3.9,2.2-8.8,3.3-14.6,3.3c-8.5,0-15.2-2.4-19.8-7.1s-7-11.3-7-19.8s2.3-15.1,6.8-19.8c4.5-4.7,11-7.1,19.2-7.1
		c8,0,14.1,2.3,18.4,6.9c4.3,4.6,6.5,11.2,6.5,19.7C451.1,85.7,451,87.6,450.7,89.3z M417.9,70.5c-2,2-3.3,5-3.9,8.9h24.1
		c-0.6-3.9-1.9-6.8-3.9-8.8c-2.1-2-4.8-3-8.1-3C422.7,67.5,419.9,68.5,417.9,70.5z"/>
	<path d="M513.7,100.8l-1,8.6c-1.9,1-4.2,1.4-6.7,1.4c-6.6,0-10.6-2.6-11.9-7.8c-1.5,2.6-3.9,4.5-7,5.8c-3.2,1.3-6.9,2-11.3,2
		c-5,0-9-1.1-11.8-3.4c-2.8-2.3-4.2-5.5-4.2-9.8c0-8.4,6.7-13.8,20.2-16.3l12.4-2.4v-2.5c0-2.8-0.8-4.9-2.3-6.6
		c-1.6-1.6-3.7-2.4-6.5-2.4c-3.2,0-5.8,0.7-7.8,2.1c-2,1.4-3.4,3.6-4.1,6.7l-11.3-4.8c1.1-4.5,3.6-8,7.4-10.5
		c3.9-2.5,8.9-3.8,15.1-3.8c7.4,0,13.1,1.6,17.3,4.8c4.1,3.2,6.2,7.9,6.2,14.2v21.2c0,1.4,0.3,2.4,0.9,3c0.6,0.6,1.6,0.9,2.9,0.9
		C511.7,101.2,512.9,101.1,513.7,100.8z M488.6,99c2.5-1.5,3.8-3.5,3.8-6v-5.4l-11.1,2.5c-2.3,0.5-4.1,1.3-5.2,2.2
		c-1.1,0.9-1.7,2.2-1.7,3.9c0,1.7,0.5,2.9,1.6,3.8c1,0.9,2.5,1.3,4.3,1.3C483.3,101.2,486.1,100.5,488.6,99z"/>
</g>
</svg>
